<svg width="26" height="26" viewBox="0 0 26 26" fill="none" xmlns="http://www.w3.org/2000/svg">
<path d="M23.9006 4.03869C23.806 4.05389 23.2643 4.1223 22.6968 4.1869C22.1293 4.2515 21.5489 4.31991 21.4071 4.33891C21.2652 4.35791 20.8611 4.41112 20.5042 4.44912C18.9307 4.63533 18.5266 4.68854 18.5008 4.71134C18.4836 4.72654 18.7459 4.99256 19.0855 5.30418L19.696 5.86662L20.0915 5.82102C20.3065 5.79441 20.4956 5.77921 20.5085 5.79061C20.5171 5.80201 20.5085 5.99583 20.4827 6.22384C20.4354 6.66087 20.3581 7.46273 20.2463 8.65222C20.2119 9.04744 20.1603 9.51108 20.1388 9.67829C20.113 9.8455 20.0958 10.0773 20.0958 10.1951V10.4117L20.3839 10.5866C20.5429 10.6816 20.6762 10.7576 20.6805 10.75C20.6891 10.7424 20.9041 10.4079 21.7983 9.03604C22.0433 8.65982 22.2325 8.34439 22.2239 8.33679C22.2153 8.32539 22.0605 8.4356 21.88 8.58001C21.6091 8.79283 21.5575 8.81943 21.5747 8.74342C21.6177 8.57241 21.6994 7.81996 21.8413 6.37205C21.88 5.95783 21.9316 5.631 21.9574 5.6082C21.9875 5.5854 22.211 5.5436 22.4604 5.52079C22.7097 5.49419 22.9247 5.45999 22.9419 5.44859C22.9591 5.43339 22.9763 5.24718 22.9849 5.03816L22.9978 4.65053L23.5481 4.35411C24.0511 4.08429 24.2015 3.98929 24.107 4.00069C24.0898 4.00449 23.9952 4.01969 23.9006 4.03869Z" fill="white"/>
<path d="M17.1944 4.72677C17.0568 4.85978 16.6656 5.22461 16.3216 5.54383L15.7025 6.12147L15.5779 7.19695C15.5091 7.78979 15.4274 8.57264 15.3887 8.93747L15.3242 9.60252L15.8702 10.0585C16.1669 10.3094 16.4592 10.545 16.5108 10.583L16.614 10.6514V10.4994C16.614 10.412 16.6312 10.3436 16.6484 10.3436C16.6699 10.3436 16.7774 10.5146 16.8934 10.7274L17.0998 11.1074L17.448 10.811C18.4196 9.98254 18.9055 9.55311 18.9828 9.46571C19.0473 9.3821 19.0817 9.18829 19.172 8.32563C19.2322 7.75178 19.3096 7.02593 19.3397 6.71431L19.4042 6.14427L19.2451 5.99986C19.1591 5.92006 18.8324 5.65024 18.5185 5.39942L17.951 4.94719L17.9381 5.0878C17.9252 5.23221 17.9252 5.23221 17.6974 4.85978C17.5727 4.65837 17.4609 4.49115 17.4523 4.49115C17.448 4.49115 17.3276 4.59756 17.1944 4.72677ZM17.7189 6.41789L18.0026 6.63831L17.9725 6.90433C17.9596 7.04874 17.908 7.59597 17.8565 8.11661L17.7705 9.06668L17.5598 9.28329C17.2374 9.61012 17.2718 9.60632 16.9536 9.3403L16.6699 9.10088L16.7301 8.57264C16.7602 8.28382 16.8117 7.74038 16.8461 7.36416C16.902 6.75611 16.9192 6.67631 17.0095 6.5851C17.1901 6.39889 17.405 6.20128 17.4222 6.20128C17.4308 6.20128 17.5641 6.30008 17.7189 6.41789Z" fill="white"/>
<path d="M13.2378 5.37293C12.3994 5.48694 10.6841 5.70735 10.6153 5.70735C10.5938 5.70735 10.7485 5.86696 10.9635 6.05698C11.1742 6.25079 11.3934 6.456 11.445 6.50921L11.5439 6.60802L11.4794 7.11725C11.3891 7.8393 11.2945 8.70956 11.1957 9.69763C11.0452 11.2633 11.0495 11.1949 11.114 11.1607C11.1484 11.1417 11.0409 11.2519 10.8775 11.404C10.7142 11.5522 10.5895 11.6814 10.5981 11.689C10.6067 11.6966 10.7614 11.6738 10.9377 11.6358C11.114 11.5978 11.5525 11.5142 11.905 11.4458L12.5499 11.3203L13.3668 10.8377C13.8182 10.5717 14.3298 10.2639 14.5147 10.1537L14.8414 9.95605L14.8887 9.66343C14.9145 9.50382 14.9446 9.1846 14.9618 8.95658L14.9919 8.53475L14.592 8.20413C14.304 7.96471 14.2051 7.8621 14.2352 7.8279C14.2567 7.8013 14.4459 7.58088 14.6565 7.34147C15.0349 6.90824 15.0392 6.90444 15.095 6.58521C15.1294 6.4066 15.1466 6.24319 15.1337 6.22039C15.1251 6.19759 14.8672 5.97337 14.5662 5.72255L14.0116 5.26272L13.2378 5.37293ZM13.4828 6.59281L13.6806 6.75243L13.2077 7.32247C12.6101 8.04832 12.6187 8.04072 12.6445 7.8317C12.6531 7.74049 12.6961 7.39847 12.7348 7.07545L12.8079 6.48641L12.9583 6.4636C13.2335 6.4218 13.2808 6.4332 13.4828 6.59281ZM13.3152 8.61836L13.6075 8.80457L13.5817 9.08959C13.5645 9.2454 13.5344 9.40501 13.5172 9.45062C13.5 9.49242 13.2464 9.67103 12.954 9.84584L12.4295 10.1613L12.4553 9.73184C12.494 9.1694 12.5757 8.28773 12.5972 8.22313C12.6101 8.18513 12.6746 8.20793 12.8208 8.29913C12.9325 8.37134 13.1561 8.51575 13.3152 8.61836Z" fill="white"/>
<path d="M8.228 6.37223C7.58312 6.96507 7.38106 7.17408 7.35956 7.26909C7.34666 7.3413 7.29937 7.71372 7.26068 8.10135C7.22199 8.48898 7.1661 9.05142 7.1317 9.35544C7.09731 9.65946 7.05862 10.0699 7.04142 10.2675L7.01562 10.6285L7.61751 11.058C7.94855 11.2898 8.2323 11.4836 8.2452 11.4836C8.2581 11.4836 8.27099 11.4114 8.27099 11.3202V11.1606L8.55474 11.59L8.83849 12.0156L9.22972 11.647C9.44468 11.4418 9.8531 11.0656 10.1368 10.8071L10.6528 10.3435L10.7043 9.74306C10.7344 9.41624 10.786 8.831 10.8247 8.44337C10.8591 8.05575 10.8978 7.56931 10.915 7.3603L10.9408 6.98027L10.038 6.28482C9.53926 5.90479 9.11794 5.59317 9.10074 5.59697C9.07924 5.59697 8.68802 5.9466 8.228 6.37223ZM9.44898 7.3907L9.61235 7.51991L9.56505 8.20016C9.53496 8.57258 9.49627 9.10842 9.47047 9.38584L9.42748 9.89128L9.18672 10.1155L8.94597 10.3435L8.83419 10.2675C8.774 10.2257 8.64932 10.1345 8.55904 10.0661L8.39567 9.94068L8.44296 9.54165C8.46446 9.32504 8.52465 8.7968 8.57624 8.37117C8.62353 7.93794 8.68372 7.56551 8.71381 7.53511C8.74391 7.50091 8.81699 7.4249 8.88578 7.3603C8.95027 7.29949 9.01476 7.21589 9.02765 7.17788C9.04915 7.11708 9.05775 7.11708 9.16523 7.18928C9.22972 7.23109 9.35439 7.32229 9.44898 7.3907Z" fill="white"/>
<path d="M5.69316 6.20534C4.14544 6.42956 2.08612 6.74118 2.02163 6.76398C1.95285 6.79058 2.03023 6.86279 2.51604 7.20861C2.83418 7.43663 3.10503 7.63044 3.12223 7.64184C3.13943 7.65324 3.10503 7.98767 3.04914 8.38669C2.99325 8.78192 2.90727 9.46597 2.85568 9.9068C2.80839 10.3438 2.7396 10.9367 2.70521 11.2179C2.57623 12.3162 2.50314 13.0344 2.52034 13.1142C2.52894 13.1864 2.68371 13.061 3.40598 12.3998C4.25722 11.6169 4.27872 11.5979 4.13684 11.5979H3.99067L4.05946 10.8417C4.09385 10.4236 4.13254 10.0778 4.14544 10.0702C4.27012 9.99041 4.52377 9.8498 4.54527 9.8498C4.59686 9.8498 4.73873 10.131 5.20305 11.1647C5.4524 11.7271 5.68026 12.225 5.71035 12.2668C5.75335 12.3428 5.78774 12.3276 6.39393 11.9095L7.02591 11.4687L6.92273 11.3889C6.82385 11.3167 5.77484 9.29496 5.78344 9.18855C5.78344 9.16575 6.0156 9.00994 6.29505 8.84653C6.88834 8.5007 6.82385 8.61851 6.90123 7.69124L6.94852 7.0718L6.47991 6.66517C5.87802 6.14454 5.92101 6.17114 5.69316 6.20534ZM5.22024 7.53923C5.4782 7.69885 5.4782 7.69885 5.4782 7.88886V8.08267L4.86771 8.5311C4.53237 8.77432 4.25292 8.97194 4.24862 8.96433C4.22283 8.94533 4.45069 7.55064 4.48508 7.49363C4.50228 7.46323 4.56676 7.42523 4.62265 7.41383C4.85051 7.35682 4.96659 7.37962 5.22024 7.53923Z" fill="white"/>
<path d="M22.7614 10.3324C22.3959 10.3818 22.095 10.4274 22.0907 10.4312C22.0864 10.435 21.8499 10.8986 21.5662 11.4648C20.8525 12.8823 20.8353 12.9127 20.8052 12.8481C20.7923 12.8215 20.6461 12.3845 20.4828 11.8867C20.3151 11.385 20.1732 10.967 20.1603 10.9594C20.1431 10.9442 18.8878 11.0924 18.776 11.1228C18.7416 11.1342 18.7545 11.2026 18.8276 11.3584C18.8835 11.48 19.1973 12.2287 19.5198 13.023L20.1087 14.4671L19.9927 15.2461C19.9282 15.6755 19.8379 16.2722 19.7949 16.5762C19.696 17.2603 19.4639 18.617 19.4037 18.8868C19.3779 19.0008 19.365 19.0996 19.3779 19.1072C19.4166 19.1414 22.095 15.4323 22.1896 15.2195C22.2154 15.1549 22.2111 15.1587 22.095 15.2233C22.0219 15.2651 21.8155 15.3981 21.635 15.5197C21.4544 15.6413 21.2953 15.7401 21.2781 15.7401C21.2652 15.7401 21.2652 15.7021 21.2738 15.6527C21.2867 15.6071 21.3168 15.3981 21.3469 15.1891C21.3942 14.8395 21.4329 14.7369 21.8413 13.897C22.0821 13.3954 22.3787 12.7911 22.4991 12.5517C22.6195 12.3161 22.7184 12.0919 22.7184 12.0539C22.7184 12.0159 22.9419 11.6017 23.2128 11.1304C23.4836 10.663 23.7072 10.2678 23.7072 10.2564C23.7072 10.2146 23.4664 10.2336 22.7614 10.3324Z" fill="white"/>
<path d="M17.6373 11.271L16.7904 11.385L16.2401 12.5175C15.9391 13.1407 15.6769 13.6386 15.6597 13.6234C15.6425 13.6044 15.4834 13.1483 15.3028 12.6049C15.118 12.0615 14.9632 11.5978 14.9546 11.575C14.946 11.5484 14.6666 11.575 14.0862 11.6624C13.6175 11.7346 13.2263 11.7992 13.2177 11.8068C13.2091 11.8182 13.265 11.9741 13.3381 12.1565L13.4714 12.4909L13.3209 13.517C13.0715 15.2157 12.9426 16.1581 12.8652 16.8308C12.8351 17.0892 12.8007 17.2982 12.7878 17.2982C12.7749 17.2982 12.5127 16.7738 12.2074 16.1315L11.6528 14.9687L11.7603 14.9003C11.8205 14.8623 12.0397 14.714 12.2504 14.5734C12.6932 14.2732 12.6674 14.334 12.7147 13.441L12.7405 12.9089L12.1214 12.4719C11.6743 12.1565 11.4765 12.0387 11.4035 12.0425C11.3476 12.0463 10.5393 12.1527 9.61069 12.2819C8.68206 12.4073 7.8996 12.5099 7.87381 12.5099C7.84371 12.5099 8.06727 12.7189 8.37252 12.9697C8.85403 13.3802 8.91422 13.4448 8.89702 13.5322C8.81533 13.859 8.35532 17.8987 8.35532 18.2483V18.3623L8.73365 18.1609C8.94001 18.0507 9.25385 17.8873 9.43012 17.7999C9.91163 17.5642 9.88584 17.587 9.80845 17.4768C9.74396 17.397 9.74396 17.3172 9.79555 16.713C9.82995 16.3102 9.87294 16.0213 9.90303 15.9871C9.93313 15.9567 10.0707 15.8693 10.2126 15.7933C10.5264 15.6261 10.492 15.5957 10.8317 16.3292C11.0724 16.8536 11.7603 18.2939 11.7775 18.3167C11.7818 18.3243 12.0956 18.1229 12.4783 17.8721C12.8566 17.6213 13.3854 17.302 13.6519 17.1614C13.9185 17.0246 14.1421 16.9068 14.1464 16.903C14.1506 16.8992 14.185 16.6826 14.2194 16.4242C14.4946 14.4024 14.5505 14.0148 14.5591 14.0034C14.5677 13.9996 14.774 14.543 15.0191 15.2119C15.2641 15.8807 15.4791 16.4356 15.4963 16.4432C15.5737 16.4888 15.7929 16.0821 16.6313 14.3226C16.842 13.8894 17.0182 13.5398 17.0268 13.5474C17.0483 13.5664 16.9193 14.7559 16.7001 16.6332C16.6571 17.0094 16.627 17.3248 16.6356 17.3324C16.6442 17.34 16.7646 17.2602 16.8978 17.15C17.0354 17.0436 17.3622 16.789 17.6287 16.5838C18.1833 16.1619 18.1231 16.2912 18.1962 15.3031C18.222 14.9687 18.2822 14.258 18.3295 13.726C18.5745 10.8872 18.5573 11.138 18.5143 11.1456C18.4928 11.1494 18.1016 11.2064 17.6373 11.271ZM11.0122 13.3878C11.2616 13.5702 11.2788 13.593 11.2788 13.745C11.2788 13.9084 11.2788 13.9084 10.6511 14.3872C10.3029 14.6532 10.0148 14.8623 10.0062 14.8585C9.99762 14.8509 10.0105 14.733 10.032 14.6C10.0578 14.4632 10.1137 14.1136 10.161 13.8248C10.2083 13.5322 10.2556 13.2889 10.2685 13.2775C10.29 13.2585 10.5565 13.2053 10.6769 13.1977C10.7113 13.1977 10.8618 13.2813 11.0122 13.3878Z" fill="white"/>
<path d="M6.20964 12.7035C5.74963 12.7833 5.29821 12.8631 5.20363 12.8783L5.03596 12.9087L4.76081 13.5547C4.22771 14.805 3.89667 15.6145 3.66881 16.2225L3.44095 16.8382L3.04543 16.9598C2.82617 17.0244 2.6284 17.0928 2.59831 17.108C2.56821 17.1232 2.6585 17.2258 2.85196 17.393C3.01963 17.5336 3.14861 17.6628 3.13571 17.678C3.12711 17.6894 2.90355 18.4115 2.6413 19.2779C2.37905 20.1444 2.14689 20.893 2.1211 20.9424C2.0824 21.026 2.091 21.0222 2.24147 20.912C2.33176 20.8474 2.90785 20.361 3.52264 19.8252C4.62323 18.8713 4.63613 18.8561 4.40827 18.9321C4.2793 18.9777 4.13742 19.0309 4.09443 19.0499C4.04714 19.0727 4.00415 19.0841 3.99985 19.0765C3.99125 19.0651 4.47706 17.8908 4.62323 17.5678C4.67912 17.4424 4.73071 17.4196 5.45728 17.1574C5.8829 17.0016 6.25693 16.8686 6.28703 16.8572C6.32142 16.842 6.33862 16.88 6.33862 16.9864C6.33862 17.07 6.35581 17.2676 6.38161 17.4196C6.4203 17.7008 6.51488 18.7649 6.52778 19.0917C6.52778 19.1943 6.54068 19.2741 6.55788 19.2741C6.57077 19.2741 6.85452 18.9511 7.18986 18.5559L7.80465 17.8414L7.69717 16.8572C7.63698 16.3137 7.56819 15.7095 7.54239 15.5119C7.45211 14.7594 7.37043 14.026 7.30594 13.4027C7.22425 12.6047 7.21136 12.5476 7.12107 12.5514C7.08238 12.5552 6.66966 12.6237 6.20964 12.7035ZM6.07637 14.7708C6.23114 15.8843 6.23114 15.7589 6.07207 15.8045C5.99468 15.8273 5.76252 15.9109 5.55186 15.9907C5.3455 16.0667 5.16923 16.1237 5.15634 16.1123C5.13484 16.0933 5.45298 15.2952 5.69374 14.7708C5.77112 14.6036 5.86141 14.3832 5.8958 14.2844C5.93019 14.1818 5.96459 14.1058 5.97318 14.1134C5.98178 14.1172 6.02907 14.4174 6.07637 14.7708Z" fill="white"/>
</svg>
